# xmcd
#
# Track frame offsets: 
#        150
#        20004
#        35070
#        51106
#        70659
#        86601
#        100402
#        120368
#        138342
#        155300
#        171861
#
# Disc length: 2613 seconds
#
# Revision: 0
# Processed by: cddbd v1.5.2PL0 Copyright (c) Steve Scherf et al.
# Submitted via: ExactAudioCopyFreeDBPlugin 1.0
#
DISCID=8c0a330b
DTITLE=Funky Nashville - Hitch A Ride
DYEAR=2006
DGENRE=Blues
TTITLE0=Hitch A Ride
TTITLE1=Gone Away
TTITLE2=Mexican Stars
TTITLE3=Ain't No Cowboy
TTITLE4=California Mansion Girl
TTITLE5=El Paso Bound
TTITLE6=Red River
TTITLE7=My Corazón
TTITLE8=La Luna
TTITLE9=Eerie Old Town
TTITLE10=Love
EXTD=
EXTT0=
EXTT1=
EXTT2=
EXTT3=
EXTT4=
EXTT5=
EXTT6=
EXTT7=
EXTT8=
EXTT9=
EXTT10=
PLAYORDER=
